<svg width="448" height="197" viewBox="0 0 448 197" fill="none" xmlns="http://www.w3.org/2000/svg">
<rect x="98.3099" width="139.031" height="139.031" rx="41.0709" transform="rotate(45 98.3099 0)" fill="url(#paint0_linear_156_10)"/>
<circle cx="69.7368" cy="98.4866" r="13.6903" fill="white"/>
<circle cx="125.867" cy="98.4866" r="13.6903" fill="white"/>
<circle cx="124.54" cy="102.635" r="8.17231" fill="black"/>
<circle cx="71.1477" cy="102.635" r="8.17231" fill="#090606"/>
<path d="M227.612 70.5373L226.06 101.344C226.448 101.441 226.788 101.489 227.079 101.489C228.146 101.489 228.744 100.681 228.874 99.0637L231.008 63.7453C232.011 62.8721 233.855 62.0958 236.539 61.4166C239.094 60.8345 241.407 60.5434 243.477 60.5434C248.36 60.5434 252.015 61.6592 254.441 63.8909C256.867 66.1225 258.079 69.001 258.079 72.5264C258.079 74.4993 257.271 78.9303 255.654 85.8193C254.069 92.676 251.773 101.958 248.765 113.666C247.665 117.774 245.191 120.733 241.342 122.545C237.978 124.097 233.531 124.873 228.001 124.873C224.508 124.873 221.209 124.485 218.104 123.709C214.999 122.933 212.508 121.817 210.632 120.361C208.077 114.734 205.506 107.004 202.919 97.1716C200.331 87.3071 198.391 77.3293 197.097 67.2384C200.137 62.7427 204.973 60.4949 211.603 60.4949C220.141 60.4949 225.478 63.8424 227.612 70.5373ZM288.595 70.1977V120.313C287.107 121.607 285.118 122.69 282.628 123.563C280.137 124.437 277.113 124.873 273.555 124.873C269.998 124.873 266.974 124.081 264.483 122.496C261.669 120.782 260.263 118.356 260.263 115.219V65.1037C261.75 63.81 263.739 62.7265 266.23 61.8533C268.72 60.98 271.728 60.5434 275.253 60.5434C278.779 60.5434 281.835 61.3196 284.423 62.8721C287.204 64.6509 288.595 67.0928 288.595 70.1977ZM318.771 106.341C319.838 106.147 320.372 105.613 320.372 104.74C320.372 103.834 320.081 102.832 319.498 101.732C318.949 100.6 318.124 99.5327 317.024 98.53C314.146 95.9426 310.248 94.6489 305.332 94.6489C302.907 94.6489 300.643 95.0532 298.54 95.8617C296.309 94.7297 294.53 92.9347 293.204 90.4767C291.878 88.0186 291.215 85.3665 291.215 82.5203C291.215 75.0815 294.32 69.3406 300.529 65.2978C305.866 61.8371 312.448 60.1068 320.275 60.1068C326.096 60.1068 330.996 60.7374 334.974 61.9988C338.953 63.2278 342.203 64.8126 344.726 66.7532C345.47 68.8878 345.842 71.1033 345.842 73.3997C345.842 75.696 345.534 77.7821 344.92 79.658C344.305 81.5339 343.416 83.0378 342.252 84.1698C341.152 83.3612 339.163 82.5365 336.284 81.6956C333.406 80.8547 330.786 80.4342 328.425 80.4342C326.064 80.4342 324.479 80.5798 323.671 80.8709C322.894 81.1619 322.506 81.6147 322.506 82.2292C322.506 82.5203 322.555 82.7952 322.652 83.054C323.784 82.7629 325.239 82.6174 327.018 82.6174C333.325 82.6174 338.467 84.1051 342.446 87.0807C347.135 90.6384 349.48 95.9749 349.48 103.09C349.48 109.365 346.941 114.572 341.863 118.712C336.365 123.143 328.975 125.358 319.692 125.358C314.582 125.358 310.151 124.97 306.4 124.194C302.648 123.45 298.993 122.124 295.435 120.216C293.01 116.691 291.797 113.117 291.797 109.494C291.797 105.84 293.042 102.815 295.532 100.422C298.023 98.0287 301.079 96.832 304.702 96.832C308.356 96.832 311.332 97.5759 313.628 99.0637C315.957 100.551 317.671 102.977 318.771 106.341ZM380.287 70.1977V120.313C378.799 121.607 376.81 122.69 374.32 123.563C371.829 124.437 368.805 124.873 365.247 124.873C361.69 124.873 358.666 124.081 356.175 122.496C353.361 120.782 351.954 118.356 351.954 115.219V65.1037C353.442 63.81 355.431 62.7265 357.922 61.8533C360.412 60.98 363.42 60.5434 366.945 60.5434C370.471 60.5434 373.527 61.3196 376.115 62.8721C378.896 64.6509 380.287 67.0928 380.287 70.1977ZM416.721 90.5252C416.721 87.2909 416.575 85.0754 416.284 83.8787C415.993 82.6497 415.46 82.0352 414.683 82.0352C414.198 82.0352 413.762 82.1969 413.373 82.5203C413.438 83.1025 413.535 83.8787 413.665 84.849C413.794 85.8193 413.859 87.8892 413.859 91.0588V94.2123C413.859 96.4116 413.81 98.0125 413.713 99.0152C413.616 100.018 413.535 100.875 413.47 101.586C413.438 101.975 413.406 102.363 413.373 102.751C413.762 103.074 414.198 103.236 414.683 103.236C415.46 103.236 415.993 102.638 416.284 101.441C416.575 100.212 416.721 97.9802 416.721 94.7459V90.5252ZM414.78 125.552C409.023 125.552 403.735 124.372 398.916 122.011C394.129 119.618 390.265 115.979 387.321 111.095C384.378 106.179 382.907 100.05 382.907 92.7083C382.907 82.0675 386.108 73.7554 392.512 67.772C398.205 62.5001 405.53 59.8642 414.489 59.8642C424.224 59.8642 431.922 62.8882 437.582 68.9364C443.274 74.9521 446.121 82.8761 446.121 92.7083C446.121 103.64 443.08 111.985 437 117.742C431.469 122.949 424.063 125.552 414.78 125.552Z" fill="black"/>
<path d="M222.337 142.111C222.337 142.632 222.148 143.082 221.77 143.46C221.41 143.82 220.969 144 220.447 144H212.889V142.111H220.177V138.332H214.779C214.257 138.332 213.807 138.152 213.429 137.792C213.069 137.414 212.889 136.964 212.889 136.442V132.663C212.889 132.141 213.069 131.7 213.429 131.341C213.807 130.963 214.257 130.774 214.779 130.774H222.337V132.663H215.049V136.442H220.447C220.969 136.442 221.41 136.631 221.77 137.009C222.148 137.369 222.337 137.81 222.337 138.332V142.111ZM234.355 132.663H230.441V144H228.281V132.663H224.368V130.774H234.355V132.663ZM248.253 144H246.093V142.38L244.474 144H238.805C238.284 144 237.834 143.82 237.456 143.46C237.096 143.082 236.916 142.632 236.916 142.111V130.774H239.075V142.111H246.093V130.774H248.253V144ZM264.438 142.111C264.438 142.614 264.249 143.055 263.871 143.433C263.493 143.811 263.052 144 262.548 144H253.101V134.553L254.99 132.663H253.101V130.774H262.548C263.052 130.774 263.493 130.963 263.871 131.341C264.249 131.718 264.438 132.159 264.438 132.663V142.111ZM262.278 142.111V132.663H255.26V143.73L256.88 142.111H262.278ZM271.313 144H269.154V130.774H271.313V144ZM287.367 142.111C287.367 142.632 287.179 143.082 286.801 143.46C286.441 143.82 286 144 285.478 144H277.92C277.398 144 276.948 143.82 276.57 143.46C276.211 143.082 276.031 142.632 276.031 142.111V132.663C276.031 132.141 276.211 131.7 276.57 131.341C276.948 130.963 277.398 130.774 277.92 130.774H285.478C286 130.774 286.441 130.963 286.801 131.341C287.179 131.7 287.367 132.141 287.367 132.663V142.111ZM285.208 142.111V132.663H278.19V142.111H285.208Z" fill="black"/>
<defs>
<linearGradient id="paint0_linear_156_10" x1="99.462" y1="67.5795" x2="227.245" y2="128.567" gradientUnits="userSpaceOnUse">
<stop stop-color="#850AC3"/>
<stop offset="0.583017" stop-color="#541F6E"/>
<stop offset="1" stop-color="#291335"/>
</linearGradient>
</defs>
</svg>
